<svg width="40" height="40" viewBox="0 0 40 40" fill="none" xmlns="http://www.w3.org/2000/svg">
<path fill-rule="evenodd" clip-rule="evenodd" d="M19.8991 6.09057C19.3298 9.87051 16.5622 28.5954 17.0595 32.0736C17.5228 32.1585 17.8915 32.5497 18.2759 32.9575C18.755 33.4658 19.2585 34 20.0001 34C20.7415 34 21.245 33.4658 21.724 32.9576C22.1085 32.5497 22.4772 32.1585 22.9405 32.0736C23.4378 28.5954 20.67 9.87051 20.1009 6.09057C20.0828 5.96981 19.9173 5.96981 19.8991 6.09057ZM24 24.3002C24 24.3002 24.586 29.3575 24.7094 31.7731C25.5626 31.929 26.7142 32.3186 26.7964 32.8641C27.4544 33.1066 27.9993 32.9719 28.1947 32.8641C28.2837 32.2861 28.2395 31.4215 28.1899 30.4519C28.0848 28.3986 27.9557 25.8744 29.0171 24.604C29.7004 23.7864 30.8396 23.1623 31.9879 22.5333C33.4661 21.7236 34.9593 20.9056 35.5148 19.6557C36.0115 18.5382 35.925 16.7005 35.8422 14.9419C35.7723 13.4552 35.705 12.025 35.9948 11.1341C36.0281 11.0319 35.8927 10.9555 35.811 11.0295C34.41 12.2993 33.8727 14.3057 33.4745 15.7927C33.2491 16.6344 33.0683 17.3097 32.8006 17.5908C32.3196 18.0957 31.2306 18.5401 29.9676 19.0555C28.2336 19.763 26.1717 20.6043 24.9047 21.9199C24.1612 22.6919 24 24.3002 24 24.3002ZM15.2906 31.7731C15.414 29.3575 16 24.3002 16 24.3002C16 24.3002 15.8386 22.6919 15.0952 21.9199C13.8282 20.6043 11.7663 19.763 10.0324 19.0555C8.76934 18.5401 7.68033 18.0957 7.19939 17.5908C6.9317 17.3097 6.75087 16.6344 6.52547 15.7927C6.12728 14.3057 5.58999 12.2993 4.18899 11.0295C4.10732 10.9555 3.97186 11.0319 4.00517 11.1341C4.29504 12.025 4.22774 13.4552 4.15778 14.9419C4.07502 16.7005 3.98854 18.5382 4.48521 19.6557C5.04066 20.9056 6.53391 21.7236 8.01204 22.5333C9.16037 23.1623 10.2996 23.7864 10.9828 24.604C12.0443 25.8744 11.9152 28.3986 11.8102 30.452C11.7606 31.4215 11.7163 32.2861 11.8054 32.8641C12.0007 32.9719 12.5456 33.1066 13.2035 32.8641C13.2858 32.3186 14.4372 31.929 15.2906 31.7731Z" fill="white"/>
</svg>
