<svg width="40" height="40" viewBox="0 0 40 40" fill="none" xmlns="http://www.w3.org/2000/svg">
<path fill-rule="evenodd" clip-rule="evenodd" d="M13.522 33C13.522 33 15.9533 31.5642 16.9259 29.6497C17.8986 27.7351 17.5946 26.8377 17.5946 26.8377C17.5946 26.8377 19.3574 26.8377 19.6309 25.0429C20.5122 25.7609 21.8191 25.9702 22.731 25.4318C23.4907 25.9702 25.8379 25.9267 26.6211 24.6241C27.5025 23.1583 26.9963 22.3805 26.8339 22.0217C27.3506 22.1712 27.7457 22.0814 28.3231 21.8422C28.9006 22.1712 31.2038 23.041 33.0644 21.7524C33.885 21.1842 34.6143 20.2567 34.6143 19.12C35.5262 17.8636 34.7664 14.1245 32.9123 13.4364C32.9123 12.6587 30.4505 10.7143 29.0829 10.7442C28.5967 9.90663 27.5025 8.8895 26.1045 8.8895C24.9799 7.69301 22.9134 7.12464 21.0594 7.39391C19.6613 6.70581 18.3544 7.06477 17.5338 7.37741C16.1661 7.03484 15.1328 7.30411 14.4338 7.57328C12.6102 7.84255 11.577 8.44086 11.1513 9.24857C8.96311 10.116 7.38276 11.7314 7.32194 13.616C6.10618 14.6928 5.74159 15.8595 5.98465 16.727C4.98177 17.6543 4.58666 19.2098 5.55924 20.0054C5.19442 21.8123 6.41018 22.949 7.99053 23.0088C4.7993 25.1626 10.7258 29.2308 14.3427 28.9915C14.4034 29.7394 14.2514 31.8034 13.522 33Z" fill="white"/>
</svg>
