<svg width="40" height="40" viewBox="0 0 40 40" fill="none" xmlns="http://www.w3.org/2000/svg">
<path fill-rule="evenodd" clip-rule="evenodd" d="M10.0621 24.8976C10.1072 24.7733 10.1011 24.636 10.0453 24.5163L8.39998 20.9883C8.34869 20.8784 8.35728 20.7499 8.42247 20.6475L18.3759 5.0679C18.4599 4.93636 18.6637 5.0106 18.6437 5.16541L17.1587 16.7119L13.3031 19.9661L14.9678 14.9418C14.977 14.9139 14.936 14.8991 14.9252 14.9264L10.1888 26.9096C9.81929 27.0176 9.46797 27.1854 9.15012 27.4101L10.0621 24.8976ZM13.4127 20.5849L13.9381 24.4429C13.9561 24.5739 13.9211 24.7068 13.8412 24.812L11.987 27.2544C10.792 26.9357 9.46989 27.3437 8.67528 28.3904C7.65164 29.7391 7.88206 31.6484 9.17478 32.7173C9.00601 32.0438 9.03999 31.3346 9.26776 30.6838C9.15962 30.152 9.27041 29.5783 9.62413 29.1124C9.63663 29.0959 9.64987 29.0803 9.6631 29.0647L9.66313 29.0647L9.67795 29.0471C9.72153 29.0596 9.76524 29.0733 9.8087 29.0891C9.94425 29.1384 10.0703 29.2022 10.1874 29.2766C10.2457 29.2222 10.3052 29.1689 10.3678 29.1181C10.5641 28.9585 10.7757 28.8231 10.9976 28.7111L10.9981 28.7113C11.0831 28.6683 11.1691 28.6278 11.2572 28.5921L11.3445 28.3512C11.4834 28.3634 11.6218 28.3896 11.7571 28.4318C12.2235 28.3186 12.7121 28.301 13.1923 28.3839C13.2364 28.3916 13.2806 28.3995 13.3247 28.4087C13.3856 28.4217 13.4466 28.4352 13.507 28.4517C13.5895 28.4739 13.6702 28.5006 13.7503 28.5287C13.819 28.5531 13.8868 28.5791 13.9538 28.6072L15.7387 26.2559C15.8187 26.1506 15.937 26.0814 16.068 26.0635L16.3549 26.0244L16.6097 23.565L13.3897 28.0649C13.2926 27.968 13.1899 27.8749 13.0777 27.7895C12.9657 27.7042 12.8494 27.6285 12.7304 27.5605L21.441 16.7352C21.4594 16.7122 21.4941 16.7386 21.4771 16.7625L17.7214 22.0111L22.8927 19.436L27.8855 8.51887C27.928 8.42578 27.8685 8.33724 27.7888 8.31574C27.747 8.30436 27.6998 8.31157 27.6587 8.34622L13.5353 20.2662C13.4425 20.3446 13.3964 20.4648 13.4127 20.5849ZM11.8334 26.8298L11.9547 26.6701L12.3022 25.7126C12.3473 25.5883 12.4399 25.487 12.5596 25.431L13.0799 25.1879L13.5395 24.5824C13.5587 24.557 13.567 24.5256 13.5626 24.4941L13.0501 20.7298L11.049 26.769C11.3086 26.7599 11.5715 26.7797 11.8334 26.8298ZM25.7929 21.1473L15.266 30.2118C15.1943 30.0948 15.115 29.9809 15.0262 29.8715C14.9375 29.7621 14.8424 29.6611 14.7428 29.5668L25.7643 21.1121C25.7876 21.0942 25.8152 21.1281 25.7929 21.1473ZM13.8166 33.3701C13.1133 33.9417 12.1338 33.9401 11.4359 33.4277C12.2926 33.3565 13.1167 32.9364 13.678 32.1971C13.9859 31.7915 14.1802 31.335 14.2665 30.866C14.748 31.6842 14.5753 32.7531 13.8166 33.3701ZM11.0677 30.6315C11.1159 30.9442 11.0911 31.2724 10.9755 31.5909C10.9001 31.7986 10.7925 31.985 10.6612 32.1476C10.5811 31.6161 10.7205 31.0631 11.0677 30.6315ZM13.098 29.972C13.184 30.4842 13.068 31.0289 12.7292 31.4752C12.5517 31.709 12.3309 31.8895 12.0875 32.0177C12.0887 32.0147 12.09 32.0117 12.0913 32.0087C12.0927 32.0054 12.0942 32.002 12.0955 31.9984C12.3437 31.3144 12.3389 30.6007 12.131 29.958C12.4509 29.8813 12.7835 29.8868 13.098 29.972ZM33.8902 14.4227C33.8588 14.4142 33.8234 14.4165 33.7879 14.4342L17.2486 22.6703C17.1402 22.7243 17.0668 22.8303 17.0543 22.951L16.6531 26.8238C16.6394 26.9553 16.5741 27.0761 16.4717 27.1595L14.0929 29.0933C13.0072 28.5006 11.6262 28.5839 10.6068 29.4127C9.2598 30.5077 9.05464 32.4888 10.1484 33.8373C11.2422 35.1858 13.2208 35.3913 14.5679 34.2963C15.5874 33.4673 15.9522 32.1313 15.5953 30.9458L17.9741 29.0119C18.0767 28.9284 18.208 28.8893 18.3396 28.9028L22.2077 29.3045C22.3283 29.3172 22.4469 29.267 22.5218 29.1717L33.9676 14.6556C34.0396 14.5643 33.982 14.4475 33.8902 14.4227ZM8.73321 32.8309C8.83188 32.9257 8.93572 33.016 9.04626 33.1C9.15679 33.1841 9.27163 33.2604 9.38987 33.3302C9.49725 33.5639 9.63318 33.7886 9.79576 34.0004C9.23916 34.1197 8.64377 34.0893 8.06961 33.8804C6.4387 33.2871 5.5971 31.4825 6.18984 29.8498C6.59712 28.7276 7.57592 27.9786 8.67775 27.8126C8.57038 27.9215 8.46792 28.0366 8.37368 28.1608C8.04952 28.5875 7.83161 29.0718 7.727 29.5819C7.54838 29.7705 7.40411 29.9975 7.30987 30.2572C6.942 31.2708 7.46449 32.3909 8.47664 32.759C8.56153 32.79 8.64744 32.8124 8.73321 32.8309Z" fill="white"/>
</svg>
