<svg width="40" height="40" viewBox="0 0 40 40" fill="none" xmlns="http://www.w3.org/2000/svg">
<path fill-rule="evenodd" clip-rule="evenodd" d="M20.0001 21.3543C19.6876 22.6042 19.8959 23.9584 20.6252 25C19.5833 23.9584 18.8542 22.5001 19.0626 20.9375C18.8542 21.1459 18.6459 21.2501 18.3334 21.4584C17.5 22.0834 17.0834 22.9167 16.9793 23.9584C16.9793 22.5001 17.5 20.9375 18.6459 20.0001C17.3959 19.6876 16.0417 19.8958 15 20.625C16.0417 19.5833 17.5 18.8542 19.0626 19.0626C18.8542 18.8542 18.7501 18.6459 18.5417 18.3334C17.9168 17.5 17.0834 17.0834 16.0417 16.9793C17.5 16.9793 19.0626 17.5 20.0001 18.6459C20.3125 17.3959 20.1042 16.0417 19.3751 15C20.4167 16.0417 21.1459 17.5 20.9375 19.0626C21.1459 18.8542 21.3543 18.75 21.6666 18.5417C22.5001 17.9168 22.9168 17.0834 23.0209 16.0417C23.0209 17.5 22.5001 19.0626 21.3543 20.0001C22.6042 20.3125 23.9584 20.1043 25 19.3751C23.9584 20.4168 22.5001 21.1459 20.9375 20.9375C21.1459 21.1459 21.25 21.3543 21.4584 21.6667C22.0834 22.5001 22.9168 22.9167 23.9584 23.0208C22.5001 23.0208 20.9375 22.5001 20.0001 21.3543ZM34 23.6522C30.4494 24.4638 26.4927 23.5508 23.6522 21.2175C27.7102 19.8985 30.8551 16.5506 32.4782 12.6957C30.5508 15.7392 27.1014 17.8696 23.4492 18.2754C25.2754 14.4203 25.3768 9.85499 23.6522 6C24.4638 9.55076 23.5506 13.5073 21.2174 16.3478C19.8986 12.2899 16.5508 9.1449 12.6957 7.52169C15.7392 9.44924 17.8695 12.8985 18.2754 16.5506C14.4203 14.7246 9.8551 14.6232 6 16.3478C9.55076 15.5363 13.5073 16.4492 16.3478 18.7825C12.2898 20.1015 9.1449 23.4494 7.52169 27.3043C9.44924 24.2608 12.8986 22.1304 16.5508 21.7246C14.7246 25.5797 14.6232 30.145 16.3478 34C15.5362 30.4492 16.4494 26.4927 18.7826 23.6522C20.1014 27.7102 23.4492 30.8551 27.3045 32.4783C24.2608 30.5508 22.1305 27.1014 21.7247 23.4494C25.5797 25.2754 30.1449 25.3768 34 23.6522Z" fill="white"/>
</svg>
