<svg width="40" height="40" viewBox="0 0 40 40" fill="none" xmlns="http://www.w3.org/2000/svg">
<path fill-rule="evenodd" clip-rule="evenodd" d="M17.2749 29.1164C22.3017 30.619 27.6138 27.7519 29.1164 22.7251C30.6191 17.6983 27.752 12.3862 22.7252 10.8835C17.6984 9.38096 12.3862 12.2481 10.8837 17.2749C9.3809 22.3017 12.2481 27.6137 17.2749 29.1164ZM31.3394 20.0035L34.6916 21.5685C34.9495 21.6888 35.066 22.0414 34.9622 22.3881L33.8183 26.2149C33.7147 26.5618 33.424 26.7925 33.1422 26.7517L29.481 26.2201C29.0518 26.8749 28.5599 27.4773 28.0155 28.0204L29.2795 31.4976C29.3767 31.7651 29.2097 32.0968 28.8912 32.2686L25.3764 34.1657C25.0579 34.3377 24.6891 34.2952 24.5188 34.0672L22.3057 31.1022C21.5529 31.2593 20.7795 31.3395 19.9966 31.339L18.4315 34.6916C18.3111 34.9495 17.9585 35.0659 17.6118 34.9623L13.7851 33.8183C13.4382 33.7147 13.2074 33.4238 13.2483 33.1422L13.7799 29.4807C13.1252 29.0514 12.5227 28.5599 11.9795 28.0154L8.50244 29.2794C8.23483 29.3766 7.90335 29.2098 7.73131 28.8911L5.83428 25.3763C5.66248 25.0578 5.70474 24.689 5.93285 24.5186L8.89779 22.3056C8.74063 21.5527 8.66007 20.7793 8.66067 19.9963L5.30831 18.4315C5.05043 18.3111 4.93409 17.9586 5.0377 17.6117L6.18173 13.7849C6.28534 13.4382 6.57612 13.2074 6.85777 13.2481L10.519 13.7797C10.9482 13.125 11.4401 12.5227 11.9845 11.9795L10.7205 8.50226C10.6234 8.2349 10.7903 7.90318 11.1089 7.73126L14.6236 5.83435C14.9422 5.66231 15.311 5.70469 15.4813 5.9328L17.6943 8.89773C18.4472 8.7407 19.2206 8.66014 20.0036 8.66074L21.5685 5.30838C21.6889 5.05037 22.0414 4.93404 22.3883 5.03777L26.215 6.18155C26.5618 6.28516 26.7927 6.57606 26.7518 6.85772L26.2201 10.519C26.8749 10.9482 27.4774 11.4399 28.0204 11.9844L31.4976 10.7206C31.7651 10.6232 32.0967 10.7903 32.2686 11.1087L34.1658 14.6236C34.3376 14.9421 34.2953 15.311 34.0671 15.4812L31.1023 17.6943C31.2593 18.4471 31.3399 19.2206 31.3394 20.0035ZM18.4664 25.1305C21.2999 25.9774 24.2834 24.3671 25.1305 21.5336C25.9774 18.7001 24.367 15.7165 21.5336 14.8696C18.7001 14.0225 15.7165 15.6329 14.8696 18.4663C14.0225 21.2999 15.6329 24.2834 18.4664 25.1305ZM12.336 17.7089C13.5992 13.483 18.0651 11.0728 22.291 12.3359C26.517 13.5992 28.9273 18.0649 27.6641 22.291C26.4008 26.5169 21.935 28.9274 17.7091 27.6641C13.483 26.4008 11.0726 21.935 12.336 17.7089Z" fill="white"/>
</svg>
